<svg width="253" height="137" viewBox="0 0 253 137" fill="none" xmlns="http://www.w3.org/2000/svg">
<g opacity="0.9">
<path d="M134.476 6.51381C128.696 9.8855 122.675 13.2572 116.895 16.6289C112.56 19.0373 108.706 21.9273 105.094 25.5398C104.371 26.2623 103.89 26.744 103.408 27.4665C101.24 30.1157 99.7955 33.0057 101.24 36.6183C102.926 39.99 106.057 40.4716 109.429 40.4716C120.266 40.7125 131.104 39.0266 141.46 35.8958C153.02 32.5241 164.58 28.9115 176.622 27.9482C179.512 27.7073 182.643 27.4665 185.533 27.9482C191.072 28.9115 193.24 30.8382 193.962 35.1732C194.685 39.2674 192.517 43.6025 188.664 45.77C184.329 48.1783 179.994 50.3459 175.177 51.7909C162.413 55.4034 149.648 56.6076 136.403 52.9951C123.879 49.6234 111.115 47.9375 98.1096 49.8642C87.9945 51.3092 78.6019 55.1626 69.691 59.7385C66.5601 61.4243 63.1885 61.6652 59.8168 60.7018C52.5917 58.7751 49.7017 51.7909 53.7959 45.5292C55.9634 42.1575 59.0942 39.5083 62.4659 37.3407C75.7119 28.6707 90.162 22.6498 104.612 16.6289C113.764 12.7756 123.157 9.8855 132.308 6.51381C132.79 6.27297 133.512 6.27294 134.235 6.0321C134.235 6.27294 134.235 6.51381 134.476 6.51381Z" fill="url(#paint0_linear_460_8)"/>
<path d="M120.507 26.2625C120.748 26.0217 120.989 25.7808 121.229 25.7808C135.679 23.1316 148.444 16.3882 160.726 8.9223C170.119 3.38308 179.993 -0.229487 190.831 0.0113486C202.632 0.252184 212.506 4.58725 219.249 14.9432C221.658 18.7966 221.899 23.3724 221.417 27.7074C219.972 37.5817 214.674 44.8068 207.449 51.3094C203.595 54.6811 199.501 57.812 194.925 59.9795C194.203 60.4612 193.48 61.1836 192.035 60.9428C194.203 59.257 196.129 57.812 198.056 56.367C202.15 53.2361 205.281 49.3827 208.653 45.2885C212.506 40.7126 213.469 35.1734 213.71 29.3933C213.71 27.2258 212.988 25.2991 211.784 23.3724C204.318 11.8123 193.48 8.68149 180.475 10.6082C178.548 10.849 176.622 11.8123 174.695 12.5348C162.653 17.1107 150.37 20.4824 138.329 24.3358C133.271 26.0216 128.214 26.5033 122.915 26.5033C121.952 26.9849 121.229 27.2258 120.507 26.2625Z" fill="url(#paint1_linear_460_8)"/>
<path d="M159.604 81.8212C158.49 81.8212 157.236 81.8212 156.122 81.8212C152.918 81.8212 150.69 83.3533 149.436 86.4174C147.486 91.5708 145.397 96.7242 143.447 101.878C143.03 103.131 142.333 103.828 140.94 103.688C139.826 103.549 138.851 103.688 137.737 103.688C135.787 103.688 135.648 103.549 136.483 101.738C138.294 97.1421 140.105 92.5458 142.055 87.9495C142.472 86.8353 142.751 85.8603 142.612 84.7461C142.472 83.214 141.497 82.0997 139.965 82.0997C137.18 82.0997 134.255 81.9604 131.469 82.0997C128.405 82.3783 126.455 84.4675 125.341 87.1138C123.391 91.9887 121.58 97.0028 119.77 102.017C119.352 103.27 118.655 103.967 117.263 103.828C116.009 103.688 114.755 103.828 113.363 103.828C112.527 103.828 112.109 103.549 112.388 102.574C114.895 95.8885 116.705 88.9245 120.466 82.9354C123.252 78.6177 127.43 75.6928 133.001 75.4143C136.065 75.275 139.269 75.275 142.333 75.4143C144.562 75.5535 146.651 75.9714 148.322 77.5035C148.879 78.0606 149.436 77.9213 149.994 77.5035C152.918 75.5535 155.983 74.8571 159.465 75.1357C161.554 75.275 163.643 75.275 165.593 75.1357C167.821 74.9964 169.771 75.8321 171.582 77.0856C172.975 78.0606 173.671 79.3141 173.811 80.9855C173.95 83.0747 173.671 85.1639 173.114 87.2531C171.443 92.2672 169.632 97.4206 167.682 102.295C167.264 103.41 166.568 103.828 165.454 103.828C164.061 103.688 162.807 103.688 161.415 103.828C159.882 103.967 159.743 103.27 160.3 102.017C162.111 97.6992 163.782 93.3815 165.454 88.9245C166.011 87.671 166.429 86.4174 166.568 85.0246C166.847 83.0747 165.732 81.9604 163.922 81.9604C162.39 81.8212 160.997 81.8212 159.604 81.8212Z" fill="white"/>
<path d="M89.6862 103.548C85.5078 103.548 81.1901 103.548 77.0116 103.548C75.7581 103.548 75.3403 103.27 75.8974 101.877C77.8473 96.5843 77.8473 96.5842 83.4186 96.5842C89.6862 96.5842 95.9538 96.5842 102.221 96.5842C103.475 96.5842 104.45 96.1664 105.286 95.6093C105.982 95.1914 106.261 94.6343 105.982 93.7986C105.704 92.9629 105.146 92.8237 104.311 92.8237C101.107 92.8237 97.9038 92.8237 94.561 92.8237C91.9147 92.8237 89.2683 92.6844 86.7613 92.8237C82.3043 93.1022 78.2652 89.0631 80.4936 83.2133C82.0257 79.4527 84.9507 76.9456 88.572 75.135C89.1291 74.8564 89.8255 74.8564 90.5219 74.8564C98.6002 74.8564 106.818 74.8564 114.896 74.8564C116.707 74.8564 116.846 74.8564 116.15 76.8064C114.478 81.8205 114.478 81.8205 109.325 81.8205C103.057 81.8205 96.7895 81.8205 90.5219 81.8205C89.2684 81.8205 88.2934 82.2383 87.7363 83.2133C87.3184 83.7704 86.9006 84.3275 87.3184 85.0239C87.597 85.7203 88.2934 85.581 88.9898 85.581C94.8396 85.581 100.829 85.8596 106.678 85.581C111.275 85.3025 114.339 88.7845 112.946 93.7986C111.693 98.6734 108.211 101.459 103.754 103.548C103.196 103.827 102.5 103.688 101.943 103.688C97.9037 103.548 93.7253 103.548 89.6862 103.548Z" fill="white"/>
<path d="M224.927 103.548C220.749 103.548 216.431 103.548 212.253 103.548C210.999 103.548 210.581 103.27 211.139 102.016C211.974 100.345 212.114 97.9772 213.506 97.0022C214.899 96.0273 217.128 96.7237 218.938 96.7237C225.345 96.7237 231.752 96.7237 238.159 96.7237C239.273 96.7237 240.248 96.4451 240.945 95.6094C241.502 95.0523 241.78 94.3559 241.502 93.6595C241.223 92.8238 240.527 92.9631 239.83 92.9631C234.12 92.9631 228.409 92.9631 222.699 92.9631C220.61 92.9631 218.938 92.2667 217.267 91.1524C216.71 90.7346 216.292 90.1775 216.153 89.6203C215.596 86.6954 215.456 83.7706 217.406 81.1242C219.356 78.4779 222.002 76.8065 224.788 75.2744C225.345 74.9959 226.042 74.9958 226.599 74.9958C234.538 74.9958 242.477 74.9958 250.416 74.9958C251.948 74.9958 252.366 75.4137 251.809 76.8065C251.112 78.3386 251.251 80.5671 249.998 81.5421C248.744 82.517 246.655 81.8206 244.984 81.8206C238.577 81.8206 232.309 81.8206 225.902 81.8206C224.649 81.8206 223.674 82.0992 223.117 83.2135C222.42 84.7455 222.838 85.5812 224.51 85.5812C230.638 85.5812 236.627 85.5812 242.755 85.5812C246.794 85.5812 248.605 87.5312 248.605 91.5703C248.605 97.8379 242.755 103.548 236.488 103.548C232.588 103.548 228.827 103.548 224.927 103.548Z" fill="white"/>
<path d="M53.0547 103.41C50.2691 103.41 47.6227 103.41 44.8371 103.41C41.0765 103.41 37.7338 100.067 38.0124 96.3064C38.7088 86.9746 42.8872 79.732 51.5226 75.5536C52.6369 74.9965 53.8904 74.7179 55.2832 74.7179C60.5758 74.7179 65.8686 74.7179 71.1612 74.7179C75.0611 74.7179 78.1253 78.1999 77.8467 81.9605C77.1503 89.4816 73.8076 95.4707 68.2363 100.485C66.0078 102.435 63.3615 103.549 60.2973 103.41C57.7902 103.41 55.4225 103.41 53.0547 103.41ZM55.0046 96.3064C57.2331 96.3064 59.3223 96.3064 61.5508 96.3064C62.2472 96.3064 62.9437 96.3064 63.5008 96.0279C67.4006 93.5208 69.4898 89.7602 70.047 85.3033C70.3255 83.0748 68.9327 81.9605 66.7042 81.9605C62.6651 81.9605 58.6259 81.9605 54.5868 81.9605C53.8904 81.9605 53.0547 81.9605 52.4976 82.3783C48.4584 85.0247 46.2299 88.9246 45.5335 93.6601C45.2549 95.4708 46.3692 96.4457 48.1799 96.4457C50.4084 96.3064 52.6369 96.3064 55.0046 96.3064Z" fill="white"/>
<path d="M188.854 103.41C186.069 103.41 183.283 103.41 180.497 103.41C176.598 103.41 173.812 100.624 173.533 96.7243C173.255 92.4065 174.926 88.5067 177.015 84.8854C179.383 80.4284 182.865 77.225 187.601 75.4143C188.854 74.9965 189.968 74.7179 191.361 74.7179C196.375 74.7179 201.25 74.7179 206.264 74.7179C210.304 74.7179 213.368 77.6428 213.228 81.8212C213.228 87.8103 210.443 92.5459 206.821 97.1421C205.011 99.5099 202.504 101.321 199.997 102.853C199.3 103.27 198.465 103.41 197.629 103.41C194.704 103.41 191.779 103.549 188.854 103.41ZM190.108 96.585C192.058 96.585 194.008 96.585 195.958 96.585C197.907 96.7242 199.579 95.8886 200.972 94.635C203.479 92.2673 204.454 89.2031 205.429 86.1389C206.264 83.214 205.011 81.8212 202.086 81.8212C198.186 81.8212 194.425 81.8212 190.526 81.8212C188.994 81.8212 187.74 82.2391 186.626 83.0747C183.422 85.8604 181.612 89.3424 180.915 93.5208C180.637 95.3315 181.751 96.585 183.701 96.585C185.79 96.585 188.019 96.585 190.108 96.585Z" fill="white"/>
<path d="M18.7919 103.41C15.0314 103.41 11.2708 103.41 7.37089 103.41C2.63534 103.41 -0.707397 99.928 0.128288 95.1924C1.10325 88.6462 3.05318 82.5179 8.7637 78.2002C11.5493 76.1109 14.6135 74.7181 18.2348 74.7181C25.4774 74.8574 32.5808 74.7181 39.8234 74.7181C41.9126 74.7181 41.9126 74.7181 41.2162 76.6681C39.5448 81.6822 39.5448 81.6822 34.1128 81.6822C27.9845 81.6822 21.9954 81.6822 15.867 81.6822C12.9421 81.6822 10.9922 82.9357 9.87795 85.582C8.90298 87.6712 7.92802 89.7605 7.51018 91.989C6.81377 95.1924 7.92803 96.5852 11.1315 96.5852C18.3741 96.5852 25.6167 96.5852 32.8593 96.5852C34.8092 96.5852 34.8092 96.7245 34.1128 98.3959C32.1629 103.41 32.1629 103.41 26.7309 103.41C24.0846 103.41 21.4383 103.41 18.7919 103.41Z" fill="white"/>
<path d="M180.026 121.225C179.784 123.677 179.784 126.563 177.851 128.871C177.005 129.881 176.159 130.313 175.071 130.313C172.413 130.313 169.634 130.025 166.976 130.458C166.009 130.602 165.647 131.035 165.526 132.189C165.405 133.054 165.163 133.92 165.163 134.786C165.042 136.517 163.834 136.228 162.988 136.373C162.505 136.373 162.505 135.94 162.505 135.507C163.351 130.169 163.351 124.687 165.284 119.638C165.888 118.051 166.855 117.186 168.184 116.897C171.567 116.32 175.071 117.041 178.455 117.041C179.784 117.186 180.026 117.907 180.026 121.225ZM172.534 119.494C171.326 119.494 170.117 119.494 168.909 119.494C168.184 119.494 167.701 119.782 167.459 120.648C166.976 122.523 166.492 124.254 166.251 126.13C166.13 127.284 166.492 127.717 167.459 127.717C169.271 127.717 171.084 127.717 172.776 127.717C175.796 127.717 176.642 126.851 177.126 123.389C177.246 122.812 177.246 122.235 177.367 121.658C177.609 120.215 177.126 119.494 175.796 119.494C174.83 119.494 173.742 119.494 172.534 119.494Z" fill="#E57E33"/>
<path d="M156.343 116.608C158.034 116.608 159.605 116.608 161.297 116.608C162.143 116.608 162.747 116.897 162.626 118.051C162.626 119.205 162.022 119.493 161.176 119.493C158.397 119.493 155.618 119.493 152.718 119.493C151.993 119.493 151.026 119.349 151.026 120.792C151.026 122.09 151.993 122.09 152.718 122.09C154.893 122.09 157.068 122.09 159.243 122.09C161.297 122.09 162.022 123.1 161.78 125.552C161.659 126.418 161.659 127.139 161.418 127.861C161.055 129.015 160.451 129.88 159.243 130.025C155.618 130.313 151.872 130.313 148.247 130.313C147.401 130.313 146.797 130.169 146.918 128.87C146.918 127.716 147.522 127.428 148.368 127.428C151.388 127.428 154.409 127.428 157.309 127.428C158.397 127.428 159.243 127.284 159.363 125.697C159.363 124.11 158.276 124.254 157.43 124.254C155.255 124.11 153.201 124.254 151.026 124.11C148.73 124.11 148.005 122.956 148.489 120.215C149.093 116.752 149.576 116.32 152.476 116.32C153.684 116.608 155.013 116.608 156.343 116.608Z" fill="#E57E33"/>
<path d="M190.782 117.04C192.473 117.04 194.044 117.04 195.736 117.04C197.186 117.04 198.152 118.194 198.032 119.925C197.911 122.378 197.669 124.686 197.065 127.138C196.461 129.302 195.252 130.312 193.561 130.312C190.419 130.456 187.278 130.456 184.136 130.312C182.082 130.168 181.236 128.87 181.478 126.417C181.719 124.83 181.84 123.099 182.203 121.512C182.686 118.483 184.136 117.184 186.794 117.184C188.003 117.04 189.332 117.04 190.782 117.04ZM189.09 127.715C190.057 127.715 191.023 127.715 191.99 127.715C192.111 127.715 192.232 127.715 192.232 127.715C193.561 127.571 194.527 126.417 194.648 124.83C194.648 123.965 194.769 122.955 194.89 122.089C195.132 120.502 194.648 119.781 193.319 119.637C191.628 119.493 190.057 119.493 188.365 119.493C185.586 119.493 184.982 120.07 184.378 123.243C184.257 123.965 184.257 124.686 184.257 125.407C184.136 126.85 184.74 127.427 185.828 127.571C187.036 127.715 188.123 127.715 189.09 127.715Z" fill="#E57E33"/>
<path d="M227.633 130.312C225.941 130.312 224.37 130.312 222.678 130.312C222.074 130.312 221.229 130.601 221.229 129.303C221.229 128.149 221.712 127.427 222.799 127.427C225.458 127.427 227.995 127.427 230.653 127.427C231.137 127.427 231.499 127.427 231.983 127.427C232.828 127.427 233.312 126.994 233.312 125.985C233.312 124.975 232.708 124.831 231.983 124.831C229.808 124.831 227.633 124.831 225.458 124.831C223.403 124.831 222.316 123.676 222.316 121.512C222.316 119.204 223.887 117.04 225.699 117.04C228.841 117.04 231.983 117.04 235.124 117.04C235.728 117.04 236.816 116.608 236.816 117.906C236.816 119.204 235.97 119.493 235.003 119.493C232.466 119.493 229.928 119.493 227.27 119.493C226.787 119.493 226.424 119.493 225.941 119.637C225.216 119.781 224.974 120.358 224.974 121.08C224.974 121.945 225.458 122.089 226.062 122.089C228.478 122.089 231.016 122.089 233.433 122.089C235.487 122.089 236.091 122.811 235.97 125.263C235.849 128.726 234.641 130.168 231.741 130.168C230.291 130.312 228.962 130.312 227.633 130.312Z" fill="#E57E33"/>
<path d="M217.242 130.313C216.759 130.313 216.155 130.313 215.672 130.313C214.101 130.169 213.497 129.303 213.738 127.428C213.98 125.408 214.101 123.388 214.342 121.224C214.463 120.214 214.463 119.493 213.376 119.493C212.53 119.493 212.409 118.772 212.409 117.906C212.409 117.041 212.772 116.464 213.497 116.608C214.826 116.752 215.309 115.887 215.309 114.444C215.309 112.569 216.276 112.713 217.363 112.713C218.572 112.857 218.33 113.867 218.209 114.732C217.967 116.031 218.33 116.608 219.417 116.464C219.78 116.464 220.142 116.464 220.626 116.464C221.472 116.464 221.834 116.752 221.834 117.906C221.834 118.916 221.472 119.349 220.626 119.349C217.363 119.637 217.363 119.637 216.759 123.532C216.759 123.821 216.638 124.11 216.638 124.398C216.397 126.85 216.517 127.139 218.692 127.139C220.142 127.139 220.505 127.572 220.142 129.014C220.022 129.591 219.659 130.024 219.176 130.024C218.451 130.313 217.847 130.313 217.242 130.313Z" fill="#E57E33"/>
<path d="M200.325 130.313C199.116 130.457 198.875 129.735 198.996 128.581C199.479 125.84 199.841 123.099 200.446 120.503C200.808 118.627 202.016 117.617 203.587 117.185C205.883 116.608 208.179 116.896 210.475 116.896C211.079 116.896 211.683 116.896 211.683 117.906C211.683 118.772 211.32 119.349 210.475 119.493C208.541 119.493 206.729 119.781 204.796 119.781C203.346 119.781 202.621 120.503 202.5 122.234C202.258 124.542 201.896 126.85 201.654 129.158C201.654 129.88 201.291 130.313 200.325 130.313Z" fill="#E57E33"/>
</g>
<defs>
<linearGradient id="paint0_linear_460_8" x1="74.8022" y1="19.2667" x2="201.241" y2="69.8422" gradientUnits="userSpaceOnUse">
<stop stop-color="#F15723"/>
<stop offset="1" stop-color="#F48E21"/>
</linearGradient>
<linearGradient id="paint1_linear_460_8" x1="142.236" y1="15.6543" x2="220.508" y2="50.5755" gradientUnits="userSpaceOnUse">
<stop stop-color="#F39523"/>
<stop offset="1" stop-color="#F15824"/>
</linearGradient>
</defs>
</svg>
